<?xml version="1.0" encoding="UTF-8"?>
<!DOCTYPE svg PUBLIC "-//W3C//DTD SVG 1.1//EN" "http://www.w3.org/Graphics/SVG/1.1/DTD/svg11.dtd">
<svg xmlns="http://www.w3.org/2000/svg" version="1.1" width="1024px" height="1024px" style="shape-rendering:geometricPrecision; text-rendering:geometricPrecision; image-rendering:optimizeQuality; fill-rule:evenodd; clip-rule:evenodd" xmlns:xlink="http://www.w3.org/1999/xlink">
<g><path style="opacity:1" fill="#ce4318" d="M 477.5,26.5 C 500.502,26.3334 523.502,26.5 546.5,27C 553,29.5 557.5,34 560,40.5C 564.667,61.1667 569.333,81.8333 574,102.5C 585.524,107.399 597.024,112.399 608.5,117.5C 627.005,106.747 645.671,96.2467 664.5,86C 669.734,85.0229 674.734,85.6896 679.5,88C 694.333,102.833 709.167,117.667 724,132.5C 729.406,139.604 729.74,146.937 725,154.5C 714.5,171.5 704,188.5 693.5,205.5C 698.487,215.963 702.987,226.63 707,237.5C 726.978,243.203 747.145,248.37 767.5,253C 773.088,255.586 776.921,259.753 779,265.5C 779.667,288.167 779.667,310.833 779,333.5C 776.833,339.667 772.667,343.833 766.5,346C 747.167,350.667 727.833,355.333 708.5,360C 704.183,371.442 699.183,382.609 693.5,393.5C 704.083,411.002 714.916,428.335 726,445.5C 728.452,452.538 727.785,459.204 724,465.5C 709.804,479.362 695.971,493.529 682.5,508C 675.453,513.864 667.786,514.864 659.5,511C 642.416,500.707 625.249,490.541 608,480.5C 596.908,485.629 585.741,490.629 574.5,495.5C 568.9,516.651 563.733,537.985 559,559.5C 556.121,564.524 551.954,568.024 546.5,570C 523.5,570.667 500.5,570.667 477.5,570C 471.026,567.526 466.526,563.026 464,556.5C 459.712,536.058 455.046,515.725 450,495.5C 438.725,490.795 427.558,485.795 416.5,480.5C 398.664,491.252 380.664,501.752 362.5,512C 355.392,514.227 348.725,513.227 342.5,509C 328.363,493.862 313.863,479.029 299,464.5C 294.853,458 294.519,451.333 298,444.5C 309.244,427.59 320.077,410.423 330.5,393C 325.31,382.453 320.81,371.62 317,360.5C 297.233,355.545 277.399,350.712 257.5,346C 250.903,343.737 246.736,339.237 245,332.5C 244.333,310.833 244.333,289.167 245,267.5C 246.288,260.21 250.455,255.377 257.5,253C 277.137,248.206 296.804,243.539 316.5,239C 320.607,227.784 325.273,216.784 330.5,206C 319.716,187.599 308.549,169.432 297,151.5C 294.826,145.206 295.492,139.206 299,133.5C 313.833,118.667 328.667,103.833 343.5,89C 348.399,85.7754 353.732,84.7754 359.5,86C 378.5,96.5 397.5,107 416.5,117.5C 427.459,112.569 438.459,107.736 449.5,103C 454.455,81.8982 459.288,60.7316 464,39.5C 466.442,32.8884 470.942,28.555 477.5,26.5 Z M 500.5,224.5 C 536.393,221.024 562.227,235.357 578,267.5C 590.834,306.666 580.334,337.832 546.5,361C 512.636,377.326 483.136,371.493 458,343.5C 437.21,314.157 436.21,284.157 455,253.5C 466.62,238.116 481.786,228.449 500.5,224.5 Z"/></g>
<g><path style="opacity:1" fill="#f15c27" d="M 493.5,59.5 C 505.833,59.5 518.167,59.5 530.5,59.5C 534.473,78.8623 538.639,98.1956 543,117.5C 544.602,122.877 547.769,127.044 552.5,130C 569.736,135.635 586.403,142.635 602.5,151C 609.215,152.248 615.548,151.248 621.5,148C 636.5,139.167 651.5,130.333 666.5,121.5C 673.872,129.513 681.705,137.179 690,144.5C 690.667,145.833 690.667,147.167 690,148.5C 679.484,164.868 669.484,181.534 660,198.5C 659.333,202.833 659.333,207.167 660,211.5C 667.898,226.526 674.231,242.193 679,258.5C 681.232,263.731 685.065,267.231 690.5,269C 709.108,273.486 727.774,277.652 746.5,281.5C 746.5,293.5 746.5,305.5 746.5,317.5C 727.344,320.872 708.344,325.038 689.5,330C 685,331.833 681.833,335 680,339.5C 675.087,355.903 668.42,371.57 660,386.5C 657.93,392.282 658.263,397.949 661,403.5C 671.976,419.758 681.976,436.424 691,453.5C 682.986,461.681 674.819,469.681 666.5,477.5C 650.167,467.667 633.833,457.833 617.5,448C 612.734,445.69 607.734,445.023 602.5,446C 585.696,455.902 568.029,463.902 549.5,470C 546.117,473.269 543.617,477.103 542,481.5C 537.843,500.118 534.01,518.784 530.5,537.5C 518.167,537.5 505.833,537.5 493.5,537.5C 489.528,518.141 485.361,498.808 481,479.5C 479.283,474.451 476.116,470.618 471.5,468C 454.945,462.887 439.279,455.887 424.5,447C 420.239,445.637 415.905,445.304 411.5,446C 393.008,455.743 375.008,466.243 357.5,477.5C 349.181,469.681 341.014,461.681 333,453.5C 333.721,450.377 335.054,447.377 337,444.5C 345.916,431.002 354.583,417.336 363,403.5C 365.792,397.965 366.125,392.298 364,386.5C 356.027,371.882 349.694,356.549 345,340.5C 341.78,333.308 336.28,329.142 328.5,328C 311.542,324.175 294.542,320.675 277.5,317.5C 277.5,305.5 277.5,293.5 277.5,281.5C 296.896,277.318 316.23,272.818 335.5,268C 340.979,265.569 344.479,261.403 346,255.5C 351.822,238.194 358.322,221.194 365.5,204.5C 365.257,201.344 364.424,198.344 363,195.5C 352.422,178.98 342.422,162.314 333,145.5C 341.014,137.319 349.181,129.319 357.5,121.5C 373.629,130.467 389.629,139.633 405.5,149C 412.027,151.877 418.693,152.21 425.5,150C 440.665,141.836 456.332,134.836 472.5,129C 475.832,126.509 478.332,123.342 480,119.5C 484.315,99.4196 488.815,79.4196 493.5,59.5 Z M 500.5,224.5 C 481.786,228.449 466.62,238.116 455,253.5C 436.21,284.157 437.21,314.157 458,343.5C 483.136,371.493 512.636,377.326 546.5,361C 580.334,337.832 590.834,306.666 578,267.5C 562.227,235.357 536.393,221.024 500.5,224.5 Z"/></g>
<g><path style="opacity:1" fill="#ce4318" d="M 495.5,191.5 C 538.1,187.232 572.266,201.899 598,235.5C 618.932,268.381 622.265,303.048 608,339.5C 581.631,390.599 540.131,410.432 483.5,399C 441.673,384.498 417.173,355.331 410,311.5C 405.237,266.535 421.404,231.368 458.5,206C 470.043,198.886 482.376,194.052 495.5,191.5 Z M 500.5,224.5 C 481.786,228.449 466.62,238.116 455,253.5C 436.21,284.157 437.21,314.157 458,343.5C 483.136,371.493 512.636,377.326 546.5,361C 580.334,337.832 590.834,306.666 578,267.5C 562.227,235.357 536.393,221.024 500.5,224.5 Z"/></g>
<g><path style="opacity:0.999" fill="#fbb632" d="M 165.5,850.5 C 157.198,841.36 149.032,832.026 141,822.5C 122.497,796.174 105.497,768.841 90,740.5C 83.601,727.452 78.101,714.119 73.5,700.5C 77.7687,696.888 82.4354,693.721 87.5,691C 132.978,667.416 179.311,646.416 226.5,628C 247.276,620.892 268.276,615.226 289.5,611C 329.081,607.152 367.081,613.486 403.5,630C 415.889,639.388 428.555,648.388 441.5,657C 463.505,668.002 486.839,674.002 511.5,675C 543.477,678.264 575.477,681.264 607.5,684C 617.138,686.101 626.138,689.768 634.5,695C 645.256,705.249 647.423,717.082 641,730.5C 636.878,736.285 631.378,740.118 624.5,742C 574.5,742.667 524.5,742.667 474.5,742C 440.662,738.167 407.162,732 374,723.5C 362.529,725.305 357.529,731.972 359,743.5C 362.405,750.962 368.238,755.128 376.5,756C 404.387,763.722 432.72,769.055 461.5,772C 527.152,773.616 592.818,773.949 658.5,773C 666.762,771.796 674.762,769.796 682.5,767C 691.614,763.064 700.614,758.73 709.5,754C 756.379,724.401 802.713,694.067 848.5,663C 863.167,654.333 877.833,645.667 892.5,637C 904.682,631.696 917.349,629.363 930.5,630C 933.298,631.453 936.298,632.453 939.5,633C 946.91,637.907 950.077,644.74 949,653.5C 945.518,660.946 940.685,667.446 934.5,673C 824.21,756.15 709.543,832.817 590.5,903C 568.807,915.617 545.474,919.95 520.5,916C 507.951,913.112 495.617,909.445 483.5,905C 461.454,895.144 439.787,884.477 418.5,873C 383.833,854 349.167,835 314.5,816C 306.583,812.36 298.583,809.027 290.5,806C 264.197,797.384 239.531,800.718 216.5,816C 199.598,827.751 182.598,839.251 165.5,850.5 Z"/></g>
<g><path style="opacity:1" fill="#ce4318" d="M 165.5,850.5 C 182.598,839.251 199.598,827.751 216.5,816C 239.531,800.718 264.197,797.384 290.5,806C 298.583,809.027 306.583,812.36 314.5,816C 349.167,835 383.833,854 418.5,873C 439.787,884.477 461.454,895.144 483.5,905C 495.617,909.445 507.951,913.112 520.5,916C 545.474,919.95 568.807,915.617 590.5,903C 709.543,832.817 824.21,756.15 934.5,673C 940.685,667.446 945.518,660.946 949,653.5C 950.077,644.74 946.91,637.907 939.5,633C 936.298,632.453 933.298,631.453 930.5,630C 917.349,629.363 904.682,631.696 892.5,637C 877.833,645.667 863.167,654.333 848.5,663C 802.713,694.067 756.379,724.401 709.5,754C 700.614,758.73 691.614,763.064 682.5,767C 674.762,769.796 666.762,771.796 658.5,773C 592.818,773.949 527.152,773.616 461.5,772C 432.72,769.055 404.387,763.722 376.5,756C 368.238,755.128 362.405,750.962 359,743.5C 357.529,731.972 362.529,725.305 374,723.5C 407.162,732 440.662,738.167 474.5,742C 524.5,742.667 574.5,742.667 624.5,742C 631.378,740.118 636.878,736.285 641,730.5C 647.423,717.082 645.256,705.249 634.5,695C 626.138,689.768 617.138,686.101 607.5,684C 575.477,681.264 543.477,678.264 511.5,675C 486.839,674.002 463.505,668.002 441.5,657C 428.555,648.388 415.889,639.388 403.5,630C 367.081,613.486 329.081,607.152 289.5,611C 268.276,615.226 247.276,620.892 226.5,628C 179.311,646.416 132.978,667.416 87.5,691C 82.4354,693.721 77.7687,696.888 73.5,700.5C 62.3335,706.166 53.8335,703.499 48,692.5C 46.932,687.232 47.5987,682.232 50,677.5C 54.8932,673.609 60.0598,670.109 65.5,667C 110.54,643.478 156.54,622.145 203.5,603C 239.557,588.111 277.057,579.611 316,577.5C 351.594,578.524 385.428,586.691 417.5,602C 429.695,609.597 441.362,617.93 452.5,627C 463.127,632.987 474.46,636.987 486.5,639C 503.742,641.931 521.075,643.598 538.5,644C 573.003,622.249 607.336,600.249 641.5,578C 682.833,555.31 721.333,559.143 757,589.5C 782.751,575.184 809.584,572.684 837.5,582C 852.689,588.52 864.856,598.687 874,612.5C 896.621,597.903 920.788,594.403 946.5,602C 977.437,616.374 986.937,639.541 975,671.5C 969.967,681.37 963.134,689.87 954.5,697C 851.275,775.866 743.941,848.866 632.5,916C 615.12,926.856 596.787,935.856 577.5,943C 545.777,951.172 514.444,949.839 483.5,939C 458.104,927.802 433.104,915.802 408.5,903C 372.961,883.398 337.295,864.065 301.5,845C 291.915,840.208 281.915,836.541 271.5,834C 258.251,832.395 245.918,835.062 234.5,842C 216.811,854.508 198.811,866.508 180.5,878C 165,879.833 158.167,873 160,857.5C 160.935,854.405 162.769,852.071 165.5,850.5 Z"/></g>
<g><path style="opacity:1" fill="#fcb933" d="M 798.5,608.5 C 816.983,606.378 832.15,612.378 844,626.5C 844.667,627.167 844.667,627.833 844,628.5C 798.563,657.607 753.397,687.107 708.5,717C 697.036,724.149 685.203,730.649 673,736.5C 673.6,731.164 674.6,725.831 676,720.5C 677.255,708.271 674.422,697.104 667.5,687C 700.956,663.549 734.956,640.882 769.5,619C 778.85,614.386 788.516,610.886 798.5,608.5 Z"/></g>
<g><path style="opacity:1" fill="#fcb933" d="M 684.5,595.5 C 699.931,594.356 713.931,598.19 726.5,607C 699.225,625.277 672.225,643.943 645.5,663C 635.8,659.437 625.8,656.437 615.5,654C 606.853,652.669 598.186,651.502 589.5,650.5C 611.996,635.418 634.662,620.585 657.5,606C 666.189,601.387 675.189,597.887 684.5,595.5 Z"/></g>
</svg>
